<?xml version="1.0" encoding="UTF-8" standalone="no"?>
<!-- Creator: CorelDRAW X8 -->

<svg
   xmlns:dc="http://purl.org/dc/elements/1.1/"
   xmlns:cc="http://creativecommons.org/ns#"
   xmlns:rdf="http://www.w3.org/1999/02/22-rdf-syntax-ns#"
   xmlns:svg="http://www.w3.org/2000/svg"
   xmlns="http://www.w3.org/2000/svg"
   xmlns:sodipodi="http://sodipodi.sourceforge.net/DTD/sodipodi-0.dtd"
   xmlns:inkscape="http://www.inkscape.org/namespaces/inkscape"
   xml:space="preserve"
   width="348"
   height="125"
   version="1.1"
   style="clip-rule:evenodd;fill-rule:evenodd;image-rendering:optimizeQuality;shape-rendering:geometricPrecision;text-rendering:geometricPrecision"
   viewBox="0 0 3925.2449 1409.8248"
   id="svg2"
   inkscape:version="0.91 r13725"
   sodipodi:docname="logo.svg"><metadata
     id="metadata66"><rdf:RDF><cc:Work
         rdf:about=""><dc:format>image/svg+xml</dc:format><dc:type
           rdf:resource="http://purl.org/dc/dcmitype/StillImage" /><dc:title></dc:title></cc:Work></rdf:RDF></metadata><sodipodi:namedview
     pagecolor="#ffffff"
     bordercolor="#666666"
     borderopacity="1"
     objecttolerance="10"
     gridtolerance="10"
     guidetolerance="10"
     inkscape:pageopacity="0"
     inkscape:pageshadow="2"
     inkscape:window-width="1598"
     inkscape:window-height="863"
     id="namedview64"
     showgrid="false"
     units="px"
     inkscape:zoom="5.1903236"
     inkscape:cx="134.40844"
     inkscape:cy="31.732347"
     inkscape:window-x="0"
     inkscape:window-y="36"
     inkscape:window-maximized="0"
     inkscape:current-layer="g4272" /><defs
     id="defs4"><style
       type="text/css"
       id="style6"><![CDATA[
    .fil0 {fill:#A53692}
    .fil2 {fill:#00AFEF}
    .fil1 {fill:#333333;fill-rule:nonzero}
   ]]></style></defs><g
     id="Layer_x0020_1"
     transform="translate(0,-1491.2872)"><metadata
       id="CorelCorpID_0Corel-Layer" /><g
       id="_2461843331952"
       transform="translate(0,1534.0043)"><g
         id="g4272"
         transform="translate(0,-45.117762)"><path
           style="fill:#00afef"
           inkscape:connector-curvature="0"
           id="path48"
           d="m 143,244 c 78,0 141,63 141,141 0,79 -63,142 -141,142 C 65,527 2,464 2,385 2,307 65,244 143,244 Z m 0,79 c 34,0 62,28 62,62 0,35 -28,63 -62,63 -34,0 -62,-28 -62,-63 0,-34 28,-62 62,-62 z"
           class="fil2" /><g
           id="g4232"><path
             class="fil2"
             d="m 152,1073 c -23,-11 -43,-28 -56,-50 -15,-22 -22,-48 -22,-75 l 0,-527 c 0,-16 2,-32 8,-46 -1,3 -1,7 -1,10 0,35 28,63 62,63 16,0 30,-6 41,-16 l 0,516 c 0,6 1,11 4,16 3,4 7,8 12,10 l 1,1 4,2 483,279 c 4,2 9,3 13,3 5,0 10,-1 14,-3 l 483,-279 4,-2 0,-1 c 5,-2 10,-6 13,-10 3,-5 4,-10 4,-16 l 0,-527 c 0,-6 -1,-11 -4,-16 -3,-4 -8,-8 -13,-10 l 0,-1 -4,-1 -483,-279 c -4,-3 -9,-4 -14,-4 -4,0 -9,1 -13,4 L 205,392 c 0,-2 0,-4 0,-7 0,-34 -28,-62 -62,-62 -18,0 -34,7 -45,19 14,-20 33,-36 54,-46 L 633,18 C 654,6 677,0 701,0 c 25,0 48,6 69,18 l 481,278 c 23,11 42,28 56,50 15,22 22,48 22,75 l 0,527 c 0,27 -7,53 -22,75 -14,22 -33,39 -56,50 l -481,278 c -21,12 -44,18 -69,18 -24,0 -47,-6 -68,-18 L 152,1073 Z"
             id="path38"
             inkscape:connector-curvature="0"
             style="fill:#00afef" /><g
             id="g40"><path
               class="fil2"
               d="m 394,700 142,-66 c 49,-22 16,-75 -15,-61 l -210,96 c -25,12 -26,50 0,61 l 210,97 c 31,14 64,-39 15,-61 L 394,700 Z"
               id="path42"
               inkscape:connector-curvature="0"
               style="fill:#00afef" /><path
               class="fil2"
               d="M 683,834 816,528 c 8,-17 -1,-37 -18,-43 -18,-7 -39,2 -46,19 L 619,810 c -8,17 0,36 18,43 18,7 38,-2 46,-19 z"
               id="path44"
               inkscape:connector-curvature="0"
               style="fill:#00afef" /><path
               class="fil2"
               d="M 1010,700 867,634 c -48,-22 -15,-75 16,-61 l 210,96 c 25,12 26,50 0,61 l -210,97 c -31,14 -64,-39 -16,-61 l 143,-66 z"
               id="path46"
               inkscape:connector-curvature="0"
               style="fill:#00afef" /></g><path
             class="fil1"
             d="m 1885,909 c -41,16 -87,23 -140,23 -170,0 -256,-82 -256,-247 0,-157 86,-235 256,-235 53,0 99,8 140,23 l 0,80 c -41,-18 -85,-27 -133,-27 -114,0 -171,53 -171,159 0,114 57,171 171,171 48,0 92,-9 133,-27 l 0,80 z"
             id="path50"
             inkscape:connector-curvature="0"
             style="fill:#f9f9f9;fill-rule:nonzero" /><path
             class="fil1"
             d="m 1992,753 c 0,73 28,109 85,109 56,0 85,-36 85,-109 0,-71 -29,-107 -85,-107 -57,0 -85,36 -85,107 z m -88,1 c 0,-117 57,-175 173,-175 115,0 173,58 173,175 0,117 -58,176 -173,176 -115,0 -173,-59 -173,-176 z"
             id="path52"
             inkscape:connector-curvature="0"
             style="fill:#f9f9f9;fill-rule:nonzero" /><path
             class="fil1"
             d="m 2511,671 c -18,-12 -41,-18 -69,-18 -54,0 -82,31 -82,92 0,73 29,110 86,110 23,0 45,-4 65,-10 l 0,-174 z m 88,237 c -53,14 -106,21 -157,21 -112,0 -169,-61 -169,-182 0,-111 55,-167 166,-167 23,0 47,5 72,16 l 0,-143 88,0 0,455 z"
             id="path54"
             inkscape:connector-curvature="0"
             style="fill:#f9f9f9;fill-rule:nonzero" /><path
             class="fil1"
             d="m 2629,820 c 0,-69 50,-104 151,-104 24,0 48,2 72,7 l 0,-27 c 0,-31 -23,-46 -68,-46 -38,0 -81,5 -127,16 l 0,-70 c 46,-11 89,-16 127,-16 104,0 156,38 156,115 l 0,234 -52,0 -31,-31 c -30,21 -64,31 -100,31 -86,0 -128,-36 -128,-109 z m 223,-37 c -23,-5 -46,-7 -72,-7 -42,0 -63,14 -63,43 0,31 17,47 53,47 29,0 56,-9 82,-27 l 0,-56 z"
             id="path56"
             inkscape:connector-curvature="0"
             style="fill:#f9f9f9;fill-rule:nonzero" /><path
             class="fil1"
             d="m 2975,929 0,-349 68,0 10,50 c 32,-33 69,-50 113,-50 44,0 74,16 90,48 36,-32 73,-48 112,-48 81,0 121,44 121,132 l 0,217 -88,0 0,-220 c 0,-39 -18,-58 -53,-58 -26,0 -51,12 -75,35 l 0,243 -89,0 0,-219 c 0,-39 -16,-59 -48,-59 -26,0 -50,12 -73,35 l 0,243 -88,0 z"
             id="path58"
             inkscape:connector-curvature="0"
             style="fill:#f9f9f9;fill-rule:nonzero" /><path
             class="fil1"
             d="m 3610,453 0,70 -88,0 0,-70 88,0 z m 0,127 0,349 -88,0 0,-349 88,0 z"
             id="path60"
             inkscape:connector-curvature="0"
             style="fill:#f9f9f9;fill-rule:nonzero" /><path
             class="fil1"
             d="m 3916,919 c -29,7 -59,10 -90,10 -124,0 -186,-60 -186,-181 0,-112 62,-168 186,-168 31,0 61,3 90,10 l 0,70 c -29,-7 -56,-10 -83,-10 -70,0 -105,32 -105,98 0,74 35,111 105,111 27,0 54,-3 83,-10 l 0,70 z"
             id="path62"
             inkscape:connector-curvature="0"
             style="fill:#f9f9f9;fill-rule:nonzero" /></g></g></g></g></svg>